<svg xmlns="http://www.w3.org/2000/svg" width="16.955" height="19.672" viewBox="0 0 16.955 19.672">
  <g id="Group_58160" data-name="Group 58160" transform="translate(0 0)">
    <g id="Group_58159" data-name="Group 58159" transform="translate(0 0)">
      <g id="Group_58151" data-name="Group 58151" transform="translate(0 0)">
        <path id="Path_5" data-name="Path 5" d="M1439.063,524.611a1,1,0,0,1-.127.1,4.493,4.493,0,0,0-.668.482,3.134,3.134,0,0,0-.614.67c-.107.155-.214.312-.306.476a3.905,3.905,0,0,0-.367.924,4.211,4.211,0,0,0-.106,1.686,4.345,4.345,0,0,0,.163.721,3.707,3.707,0,0,0,.413.932c.136.2.266.415.42.606a3.4,3.4,0,0,0,.579.568c.156.12.309.246.476.349s.348.182.524.27c.065.032.144.04.186.123-.04.1-.078.2-.125.3a16.193,16.193,0,0,1-.846,1.6c-.154.247-.324.484-.478.731a10.059,10.059,0,0,1-.76,1c-.125.152-.261.294-.4.435s-.275.27-.419.4a2.616,2.616,0,0,1-.3.23,3.631,3.631,0,0,1-.617.331,2.33,2.33,0,0,1-.939.159,2.832,2.832,0,0,1-.874-.2c-.27-.1-.526-.231-.79-.345-.09-.039-.185-.068-.278-.1a4.337,4.337,0,0,0-1.9-.153,3.105,3.105,0,0,0-.946.26c-.2.089-.419.149-.614.251a3.325,3.325,0,0,1-.712.231,2.117,2.117,0,0,1-.489.046,1.4,1.4,0,0,1-.393-.03,2.506,2.506,0,0,1-.641-.208.464.464,0,0,0-.055-.027,2.807,2.807,0,0,1-.711-.459,4.8,4.8,0,0,1-.468-.436c-.163-.173-.314-.358-.464-.542-.127-.155-.251-.314-.367-.477-.146-.207-.283-.421-.423-.632-.075-.113-.154-.224-.22-.341-.143-.254-.284-.509-.417-.769q-.178-.344-.334-.7c-.1-.225-.192-.453-.273-.686-.1-.286-.189-.576-.272-.868s-.157-.586-.225-.882c-.039-.172-.061-.348-.085-.523-.017-.126-.023-.254-.038-.38s-.042-.234-.052-.352c-.015-.172-.026-.344-.026-.517,0-.271,0-.543.012-.814.006-.151.031-.3.052-.451.03-.212.061-.423.1-.634.016-.092.043-.182.067-.273.034-.131.062-.264.1-.392a6.346,6.346,0,0,1,.353-.838,4.815,4.815,0,0,1,.505-.757c.117-.151.257-.284.38-.43a4.7,4.7,0,0,1,.845-.73,4.821,4.821,0,0,1,.532-.329,5.127,5.127,0,0,1,1.014-.4,3.826,3.826,0,0,1,1.451-.125,4.438,4.438,0,0,1,.622.087c.262.062.519.152.777.231l.106.033c.311.1.62.212.934.307a3.1,3.1,0,0,0,.494.106,3.21,3.21,0,0,0,1.343-.093c.208-.062.408-.148.611-.222.089-.033.178-.064.268-.091.275-.081.547-.172.823-.249a4.909,4.909,0,0,1,1.022-.136,3.845,3.845,0,0,1,1.1.085c.227.052.445.14.667.213.051.017.1.044.148.061a3.946,3.946,0,0,1,.881.484,5.682,5.682,0,0,1,.565.436c.151.131.283.284.423.428a1.146,1.146,0,0,1,.1.111c.031.041.056.087.087.136" transform="translate(-1422.679 -518.028)" fill="#2c2c2c"/>
        <path id="Path_10" data-name="Path 10" d="M1449.6,510.194a3.133,3.133,0,0,1-.1.87,3.189,3.189,0,0,1-.3.857c-.082.161-.154.326-.245.482a4.267,4.267,0,0,1-.579.778,4.334,4.334,0,0,1-.926.746,2.283,2.283,0,0,1-.492.251c-.181.056-.354.136-.537.176a7.242,7.242,0,0,1-.73.105c-.132.014-.165-.026-.178-.161a2.739,2.739,0,0,1,.026-.835,3.271,3.271,0,0,1,.213-.769c.09-.188.164-.384.255-.572a2.13,2.13,0,0,1,.2-.336,7.188,7.188,0,0,1,.48-.605,4.575,4.575,0,0,1,.535-.488,5.909,5.909,0,0,1,.6-.406,4,4,0,0,1,.485-.24c.18-.078.364-.147.549-.212a1.526,1.526,0,0,1,.24-.054c.093-.018.186-.033.28-.045.163-.023.212.015.221.178,0,.094,0,.189,0,.28" transform="translate(-1437.337 -509.73)" fill="#2c2c2c"/>
      </g>
    </g>
  </g>
</svg>
