<svg xmlns="http://www.w3.org/2000/svg" width="28" height="28" viewBox="0 0 28 28">
  <g id="Layer_22" data-name="Layer 22" transform="translate(-2.001 -2)">
    <path id="Path_102471" data-name="Path 102471" d="M21,12.46,17.41,16,21,19.54A1.015,1.015,0,1,1,19.59,21L16,17.41,12.46,21a1,1,0,1,1-1.41-1.41L14.59,16l-3.54-3.54a1,1,0,0,1,1.41-1.41L16,14.59l3.54-3.54A1.015,1.015,0,0,1,21,12.46ZM25.9,25.9a14,14,0,1,1,0-19.8,14,14,0,0,1,0,19.8ZM24.49,7.51a12,12,0,1,0,3.529,8.5,12,12,0,0,0-3.529-8.5Z" fill="#908f8f"/>
  </g>
</svg>
