<svg id="User-Icon" xmlns="http://www.w3.org/2000/svg" width="24" height="24" viewBox="0 0 24 24">
  <path id="Vector" d="M0,0H24V24H0Z" fill="none"/>
  <g id="apps" transform="translate(1 2)">
    <path id="Path_102472" data-name="Path 102472" d="M5.833,0h-2.5A3.333,3.333,0,0,0,0,3.333v2.5A3.333,3.333,0,0,0,3.333,9.167h2.5A3.333,3.333,0,0,0,9.167,5.833v-2.5A3.333,3.333,0,0,0,5.833,0ZM7.5,5.833A1.667,1.667,0,0,1,5.833,7.5h-2.5A1.667,1.667,0,0,1,1.667,5.833v-2.5A1.667,1.667,0,0,1,3.333,1.667h2.5A1.667,1.667,0,0,1,7.5,3.333Z" fill="#b8babf" stroke="#b8babf" stroke-width="0.2"/>
    <path id="Path_102473" data-name="Path 102473" d="M18.833,0h-2.5A3.333,3.333,0,0,0,13,3.333v2.5a3.333,3.333,0,0,0,3.333,3.333h2.5a3.333,3.333,0,0,0,3.333-3.333v-2.5A3.333,3.333,0,0,0,18.833,0ZM20.5,5.833A1.667,1.667,0,0,1,18.833,7.5h-2.5a1.667,1.667,0,0,1-1.667-1.667v-2.5a1.667,1.667,0,0,1,1.667-1.667h2.5A1.667,1.667,0,0,1,20.5,3.333Z" transform="translate(-2.167 0)" fill="#b8babf" stroke="#b8babf" stroke-width="0.2"/>
    <path id="Path_102474" data-name="Path 102474" d="M5.833,13h-2.5A3.333,3.333,0,0,0,0,16.333v2.5a3.333,3.333,0,0,0,3.333,3.333h2.5a3.333,3.333,0,0,0,3.333-3.333v-2.5A3.333,3.333,0,0,0,5.833,13ZM7.5,18.833A1.667,1.667,0,0,1,5.833,20.5h-2.5a1.667,1.667,0,0,1-1.667-1.667v-2.5a1.667,1.667,0,0,1,1.667-1.667h2.5A1.667,1.667,0,0,1,7.5,16.333Z" transform="translate(0 -2.167)" fill="#b8babf" stroke="#b8babf" stroke-width="0.2"/>
    <path id="Path_102475" data-name="Path 102475" d="M18.833,13h-2.5A3.333,3.333,0,0,0,13,16.333v2.5a3.333,3.333,0,0,0,3.333,3.333h2.5a3.333,3.333,0,0,0,3.333-3.333v-2.5A3.333,3.333,0,0,0,18.833,13ZM20.5,18.833A1.667,1.667,0,0,1,18.833,20.5h-2.5a1.667,1.667,0,0,1-1.667-1.667v-2.5a1.667,1.667,0,0,1,1.667-1.667h2.5A1.667,1.667,0,0,1,20.5,16.333Z" transform="translate(-2.167 -2.167)" fill="#b8babf" stroke="#b8babf" stroke-width="0.2"/>
  </g>
</svg>
