<svg xmlns="http://www.w3.org/2000/svg" width="76.057" height="75.94" viewBox="0 0 76.057 75.94">
  <path id="fill" d="M70.756,58.3c2.307,3.277,5.3,7.064,5.3,9.754a7.923,7.923,0,1,1-15.845,0c0-2.456,3.045-6.364,5.362-9.726a3.169,3.169,0,0,1,5.181-.029Zm-2.773-12.21L43.2,70.871a17.455,17.455,0,0,1-24.649,0L5.105,57.425a17.43,17.43,0,0,1,0-24.649l12.1-12.1L7.729,11.2a4.755,4.755,0,1,1,6.725-6.725l9.472,9.476,5.961-5.961a4.754,4.754,0,0,1,6.75-6.684L74.666,39.339a4.754,4.754,0,0,1-6.684,6.75Zm-6.728-6.715L36.6,14.722l-5.955,5.955L42.975,33a4.755,4.755,0,0,1-6.725,6.725L23.926,27.4l-12.1,12.1a7.923,7.923,0,0,0,0,11.206L25.273,64.15a7.923,7.923,0,0,0,11.206,0Z" transform="translate(0 -0.037)" fill="#00d0b0"/>
</svg>
