<svg xmlns="http://www.w3.org/2000/svg" width="62.587" height="62.587" viewBox="0 0 62.587 62.587">
  <g id="Group_72692" data-name="Group 72692" transform="translate(-290.133 -167.621)">
    <g id="Group_72683" data-name="Group 72683" transform="translate(0 0)">
      <path id="Path_104667" data-name="Path 104667" d="M1666.107,1008.966a29.294,29.294,0,1,1,29.294-29.294,29.327,29.327,0,0,1-29.294,29.294" transform="translate(-1344.681 -780.758)" fill="#00d0b0" stroke="#fff" stroke-width="4"/>
      <path id="Path_104668" data-name="Path 104668" d="M25.643,18l-10.991-7.99a1.325,1.325,0,0,0-2.1,1.069V27.055a1.321,1.321,0,0,0,.724,1.182,1.335,1.335,0,0,0,.6.143,1.317,1.317,0,0,0,.779-.257L25.643,20.14a1.315,1.315,0,0,0,0-2.138Z" transform="translate(304.001 180.762)" fill="#fff"/>
    </g>
  </g>
</svg>
