<svg xmlns="http://www.w3.org/2000/svg" width="80.345" height="80.599" viewBox="0 0 80.345 80.599">
  <g id="Live_TV" data-name="Live TV" transform="translate(-3.75 -3.514)">
    <path id="Path_104669" data-name="Path 104669" d="M22.01,53.181v-20.1a7.136,7.136,0,0,1,10.745-6.145l17.08,10.052a7.13,7.13,0,0,1,0,12.289L32.755,59.326A7.134,7.134,0,0,1,22.01,53.181Zm8.555-17.609V50.687l12.843-7.558Z" transform="translate(7.669 9.366)" fill="#00d0b0" stroke="#fff" stroke-width="0.5"/>
    <path id="Path_104670" data-name="Path 104670" d="M69.587,21.128H57.66L68.2,11.447c4.16-3.824-1.614-10.125-5.787-6.3L45.01,21.128H42.133L28.28,8.407c-4.166-3.819-9.953,2.472-5.787,6.3l6.99,6.419H18.258A14.275,14.275,0,0,0,4,35.386V69.6A14.275,14.275,0,0,0,18.258,83.863H69.587A14.275,14.275,0,0,0,83.845,69.6V35.386A14.275,14.275,0,0,0,69.587,21.128ZM75.29,69.6a5.709,5.709,0,0,1-5.7,5.7H18.258a5.709,5.709,0,0,1-5.7-5.7V35.386a5.709,5.709,0,0,1,5.7-5.7H69.587a5.709,5.709,0,0,1,5.7,5.7Z" transform="translate(0 0)" fill="#00d0b0" stroke="#fff" stroke-width="0.5"/>
  </g>
</svg>
