<svg xmlns="http://www.w3.org/2000/svg" width="75.327" height="87.106" viewBox="0 0 75.327 87.106">
  <g id="voice-recorder" transform="translate(-36.683 -0.529)">
    <g id="Group_72551" data-name="Group 72551" transform="translate(48.172 46.969)">
      <g id="Group_72550" data-name="Group 72550">
        <path id="Path_102579" data-name="Path 102579" d="M171.494,273.982a2.887,2.887,0,1,0-5.774,0,20.4,20.4,0,0,1-40.8,0,2.887,2.887,0,0,0-5.774,0A26.145,26.145,0,0,0,142.433,299.8v5.933H133.58a2.887,2.887,0,1,0,0,5.774h23.48a2.887,2.887,0,1,0,0-5.774h-8.853V299.8A26.145,26.145,0,0,0,171.494,273.982Z" transform="translate(-119.146 -271.095)" fill="#00d0b0" stroke="#00d0b0" stroke-width="0.5"/>
      </g>
    </g>
    <g id="Group_72553" data-name="Group 72553" transform="translate(59.719 0.779)">
      <g id="Group_72552" data-name="Group 72552">
        <path id="Path_102580" data-name="Path 102580" d="M194.149,29.584a14.589,14.589,0,0,0-14.627,14.434V78.661a14.628,14.628,0,0,0,29.253,0V44.018A14.589,14.589,0,0,0,194.149,29.584ZM203,78.661a8.855,8.855,0,0,1-17.706,0V44.018a8.855,8.855,0,0,1,17.706,0Z" transform="translate(-179.522 -29.584)" fill="#00d0b0" stroke="#00d0b0" stroke-width="0.5"/>
      </g>
    </g>
    <g id="Group_72557" data-name="Group 72557" transform="translate(100.907 12.478)">
      <g id="Group_72556" data-name="Group 72556" transform="translate(0 0)">
        <path id="Path_102582" data-name="Path 102582" d="M399.807,91.6a2.887,2.887,0,1,0-4.082,4.083,14.408,14.408,0,0,1,0,20.4,2.887,2.887,0,1,0,4.082,4.083,20.181,20.181,0,0,0,0-28.568Z" transform="translate(-394.879 -90.754)" fill="#00d0b0" stroke="#00d0b0" stroke-width="0.5"/>
      </g>
    </g>
    <g id="Group_72559" data-name="Group 72559" transform="translate(92.745 20.641)">
      <g id="Group_72558" data-name="Group 72558">
        <path id="Path_102583" data-name="Path 102583" d="M357.131,134.276a2.887,2.887,0,1,0-4.082,4.083,2.876,2.876,0,0,1,0,4.078,2.887,2.887,0,1,0,4.082,4.083,8.65,8.65,0,0,0,0-12.244Z" transform="translate(-352.203 -133.431)" fill="#00d0b0" stroke="#00d0b0" stroke-width="0.5"/>
      </g>
    </g>
    <g id="Group_72563" data-name="Group 72563" transform="translate(36.933 12.479)">
      <g id="Group_72562" data-name="Group 72562" transform="translate(0 0)">
        <path id="Path_102585" data-name="Path 102585" d="M66.151,105.884a14.337,14.337,0,0,1,4.233-10.2A2.887,2.887,0,1,0,66.3,91.6a20.181,20.181,0,0,0,0,28.567,2.887,2.887,0,1,0,4.082-4.083A14.337,14.337,0,0,1,66.151,105.884Z" transform="translate(-60.377 -90.755)" fill="#00d0b0" stroke="#00d0b0" stroke-width="0.5"/>
      </g>
    </g>
    <g id="Group_72565" data-name="Group 72565" transform="translate(48.48 20.64)">
      <g id="Group_72564" data-name="Group 72564">
        <path id="Path_102586" data-name="Path 102586" d="M127.377,142.437a2.877,2.877,0,0,1,0-4.078,2.887,2.887,0,0,0-4.082-4.083,8.65,8.65,0,0,0,0,12.244,2.887,2.887,0,0,0,4.083-4.082Z" transform="translate(-120.756 -133.43)" fill="#00d0b0" stroke="#00d0b0" stroke-width="0.5"/>
      </g>
    </g>
  </g>
</svg>
