<svg xmlns="http://www.w3.org/2000/svg" width="42.578" height="46.803" viewBox="0 0 42.578 46.803">
  <g id="Group_72614" data-name="Group 72614" transform="translate(-9718.579 -6336.133)">
    <path id="Path_58157" data-name="Path 58157" d="M717.273,2971.49c4.926-.56,10.468,1.61,14.456,6.16s5.409,10.33,4.209,15.14c-4.926.56-10.469-1.61-14.457-6.16S716.072,2976.3,717.273,2971.49Z" transform="translate(9001.72 3364.73)" fill="#14cfc5" fill-rule="evenodd"/>
    <path id="Path_58158" data-name="Path 58158" d="M740.359,2996.82c-1.2,4.81.22,10.59,4.208,15.14s9.531,6.72,14.457,6.16c1.2-4.81-.22-10.59-4.208-15.14S745.285,2996.26,740.359,2996.82Z" transform="translate(9001.72 3364.73)" fill="#14cfc5" fill-rule="evenodd"/>
    <path id="Path_58159" data-name="Path 58159" d="M759.024,2971.49c-4.926-.56-10.469,1.61-14.457,6.16s-5.409,10.33-4.208,15.14c4.926.56,10.469-1.61,14.457-6.16S760.225,2976.3,759.024,2971.49Z" transform="translate(9001.72 3364.73)" fill="#5846df" fill-rule="evenodd"/>
    <path id="Path_58160" data-name="Path 58160" d="M717.273,3018.12c4.926.56,10.468-1.61,14.456-6.16s5.409-10.33,4.209-15.14c-4.926-.56-10.469,1.61-14.457,6.16S716.072,3013.31,717.273,3018.12Z" transform="translate(9001.72 3364.73)" fill="#5846df" fill-rule="evenodd"/>
  </g>
</svg>
