<svg xmlns="http://www.w3.org/2000/svg" width="15.519" height="18.006" viewBox="0 0 15.519 18.006">
  <g id="Group_58160" data-name="Group 58160" transform="translate(0 0)">
    <g id="Group_58159" data-name="Group 58159" transform="translate(0 0)">
      <g id="Group_58151" data-name="Group 58151" transform="translate(0)">
        <path id="Path_5" data-name="Path 5" d="M1437.675,524.445a.914.914,0,0,1-.116.091,4.118,4.118,0,0,0-.612.441,2.868,2.868,0,0,0-.562.613c-.1.142-.2.286-.28.436a3.577,3.577,0,0,0-.336.846,3.854,3.854,0,0,0-.1,1.543,3.973,3.973,0,0,0,.149.66,3.389,3.389,0,0,0,.378.853c.125.187.244.38.384.555a3.116,3.116,0,0,0,.53.52c.143.11.283.225.436.32s.319.167.48.247c.059.029.132.036.171.113-.037.089-.071.184-.114.274a14.812,14.812,0,0,1-.775,1.465c-.141.226-.3.443-.437.669a9.2,9.2,0,0,1-.7.915c-.114.139-.239.269-.365.4s-.251.247-.384.363a2.393,2.393,0,0,1-.279.21,3.324,3.324,0,0,1-.564.3,2.133,2.133,0,0,1-.86.146,2.593,2.593,0,0,1-.8-.182c-.247-.088-.482-.211-.723-.316-.082-.036-.169-.062-.254-.092a3.97,3.97,0,0,0-1.74-.14,2.844,2.844,0,0,0-.866.238c-.185.081-.383.136-.562.229a3.045,3.045,0,0,1-.652.212,1.937,1.937,0,0,1-.448.042,1.275,1.275,0,0,1-.359-.028,2.294,2.294,0,0,1-.587-.19.423.423,0,0,0-.051-.025,2.569,2.569,0,0,1-.651-.42,4.408,4.408,0,0,1-.428-.4c-.149-.158-.287-.328-.425-.5-.116-.142-.229-.287-.336-.437-.133-.189-.259-.385-.387-.579-.068-.1-.141-.2-.2-.312-.131-.232-.26-.466-.382-.7q-.163-.315-.306-.64c-.091-.206-.176-.415-.25-.628-.091-.262-.173-.528-.249-.794s-.144-.537-.206-.807c-.036-.157-.056-.318-.078-.478-.016-.116-.021-.232-.035-.348s-.038-.214-.047-.322c-.013-.157-.023-.315-.024-.473,0-.248,0-.5.011-.745.006-.138.029-.276.048-.413.027-.194.056-.387.089-.58.015-.084.039-.167.061-.25.031-.12.057-.242.1-.359a5.82,5.82,0,0,1,.323-.767,4.41,4.41,0,0,1,.463-.693c.107-.138.235-.26.348-.393a4.311,4.311,0,0,1,.773-.668,4.405,4.405,0,0,1,.487-.3,4.693,4.693,0,0,1,.928-.368,3.5,3.5,0,0,1,1.328-.115,4.058,4.058,0,0,1,.569.079c.24.057.475.139.711.211l.1.03c.285.095.568.194.855.281a2.845,2.845,0,0,0,.452.1,2.938,2.938,0,0,0,1.229-.085c.19-.057.373-.136.56-.2.081-.03.163-.059.245-.084.252-.074.5-.157.754-.228a4.492,4.492,0,0,1,.935-.124,3.519,3.519,0,0,1,1.009.078c.208.047.408.128.61.2.046.015.09.04.136.056a3.611,3.611,0,0,1,.806.443,5.214,5.214,0,0,1,.517.4c.139.12.259.26.387.392a1.07,1.07,0,0,1,.089.1c.028.038.051.079.08.125" transform="translate(-1422.679 -518.42)" fill="#fff"/>
        <path id="Path_10" data-name="Path 10" d="M1449.255,510.154a2.871,2.871,0,0,1-.1.8,2.916,2.916,0,0,1-.27.785c-.075.147-.141.3-.224.441a3.9,3.9,0,0,1-.53.712,3.966,3.966,0,0,1-.847.683,2.092,2.092,0,0,1-.45.23c-.165.051-.324.125-.492.161a6.646,6.646,0,0,1-.668.1c-.121.013-.151-.024-.163-.147a2.511,2.511,0,0,1,.024-.764,3,3,0,0,1,.195-.7c.082-.172.15-.352.234-.523a1.956,1.956,0,0,1,.187-.307,6.608,6.608,0,0,1,.44-.554,4.187,4.187,0,0,1,.49-.447,5.4,5.4,0,0,1,.548-.371,3.666,3.666,0,0,1,.444-.219c.164-.071.333-.134.5-.194a1.4,1.4,0,0,1,.219-.049c.085-.016.17-.03.256-.042.149-.021.194.014.2.163,0,.086,0,.173,0,.256" transform="translate(-1438.028 -509.73)" fill="#fff"/>
      </g>
    </g>
  </g>
</svg>
