<svg xmlns="http://www.w3.org/2000/svg" width="15.616" height="18.427" viewBox="0 0 15.616 18.427">
  <g id="Group_72042" data-name="Group 72042" transform="translate(0 0)">
    <path id="Path_6" data-name="Path 6" d="M1354.131,527.919h.194c.67,0,1.34-.007,2.009-.008l2.721,0,1.975-.005c.222,0,.443.005.665,0,.342,0,.684-.01,1.026-.012.248,0,.5,0,.744,0s.466,0,.7,0h.034c.118,0,.141.032.141.151,0,.214.006.428.007.642,0,.184,0,.368,0,.552q0,.8.006,1.6c0,.32,0,.64,0,.959,0,.429,0,.858,0,1.287,0,.256,0,.512,0,.768,0,.455,0,.91,0,1.365a2.094,2.094,0,0,1-.016.293,1.139,1.139,0,0,1-.484.783,1.237,1.237,0,0,1-.813.242c-.191-.01-.383,0-.575,0a.507.507,0,0,0-.067,0c-.1.013-.123.037-.124.138,0,.226,0,.452,0,.677s.006.466.008.7c0,.312,0,.624.006.935a1.091,1.091,0,0,1-.232.737,1.04,1.04,0,0,1-.507.361,1.265,1.265,0,0,1-.8-.013,1.031,1.031,0,0,1-.508-.391,1.318,1.318,0,0,1-.224-.8c0-.376,0-.752,0-1.128q0-.525,0-1.05a.513.513,0,0,0,0-.079.083.083,0,0,0-.081-.079c-.06,0-.12-.014-.18-.014q-.553,0-1.107,0c-.145,0-.168.025-.168.174,0,.474,0,.948,0,1.422,0,.282,0,.564,0,.846,0,.064-.005.128-.011.191a1.022,1.022,0,0,1-.454.765,1.122,1.122,0,0,1-1.145.1.977.977,0,0,1-.425-.357.939.939,0,0,1-.177-.384,2.415,2.415,0,0,1-.044-.357c-.006-.429,0-.858,0-1.287,0-.334-.01-.668-.018-1,0-.083-.037-.112-.134-.113-.2,0-.392-.011-.587,0a1.4,1.4,0,0,1-.656-.132,1.079,1.079,0,0,1-.251-.17,1.134,1.134,0,0,1-.427-.849c-.012-.27-.006-.542-.007-.812,0-.339,0-.677,0-1.016q-.009-1.483-.02-2.966c0-.372-.006-.744-.008-1.116,0-.323,0-.646,0-.969,0-.135-.006-.271-.006-.406,0-.056.011-.111.018-.182" transform="translate(-1351.436 -521.718)" fill="#f5f5f5"/>
    <path id="Path_7" data-name="Path 7" d="M1360.818,514.806c-1.016,0-2.033,0-3.049,0-.715,0-1.43.008-2.145.011-.452,0-.9,0-1.355,0-.026,0-.053,0-.079,0-.082,0-.1-.019-.1-.1a3.526,3.526,0,0,1,.109-.915c.027-.09.048-.181.072-.272a.5.5,0,0,1,.019-.065q.119-.285.239-.569a3.193,3.193,0,0,1,.351-.6c.106-.149.224-.289.341-.43a3.587,3.587,0,0,1,.249-.271,3.324,3.324,0,0,1,.3-.268c.187-.143.381-.277.573-.414.034-.024.073-.038.109-.059a1.086,1.086,0,0,0,.132-.085c.064-.051.071-.086.032-.156-.114-.2-.232-.4-.345-.607-.077-.137-.148-.278-.222-.417-.044-.083-.094-.162-.133-.247a.406.406,0,0,1-.039-.162.121.121,0,0,1,.173-.116.206.206,0,0,1,.125.106c.116.219.231.439.35.656.083.151.173.3.257.448.031.056.053.116.084.173a.155.155,0,0,0,.233.086c.183-.079.376-.128.564-.194a3.949,3.949,0,0,1,.647-.137c.126-.021.251-.052.378-.061a5.972,5.972,0,0,1,.992,0c.172.016.342.051.512.078.085.014.172.023.255.045a6.327,6.327,0,0,1,.8.251c.139.057.185.043.255-.09.13-.245.254-.494.384-.739.063-.119.133-.233.2-.351.033-.059.066-.118.092-.181a.223.223,0,0,1,.133-.115.138.138,0,0,1,.175.109.324.324,0,0,1-.055.2c-.1.174-.19.349-.285.524-.072.132-.144.263-.215.4-.059.109-.118.218-.173.329a.113.113,0,0,0,.045.174c.092.063.191.117.287.176a3.653,3.653,0,0,1,.6.449c.168.161.342.316.5.489a5.309,5.309,0,0,1,.372.492,3.219,3.219,0,0,1,.236.382c.085.167.148.344.23.512a4.025,4.025,0,0,1,.2.643,2.347,2.347,0,0,1,.061.4c.012.1.016.2.023.3a.445.445,0,0,1,0,.079c-.009.09-.029.108-.122.108h-3.377Zm-3.969-1.822a.424.424,0,0,0,.45-.443.429.429,0,0,0-.431-.428.436.436,0,1,0-.019.871m5.128-.447a.443.443,0,0,0-.462-.438.428.428,0,0,0-.423.451.443.443,0,0,0,.436.427.459.459,0,0,0,.45-.44" transform="translate(-1351.42 -509.025)" fill="#f5f5f5"/>
    <path id="Path_8" data-name="Path 8" d="M1388.951,530.776q0,.717,0,1.434c0,.327.011.655,0,.982a1.074,1.074,0,0,1-.535.933,1.043,1.043,0,0,1-.492.176.852.852,0,0,1-.441-.057,2.918,2.918,0,0,1-.273-.13,1.025,1.025,0,0,1-.518-.881q-.01-.349-.012-.7,0-.863-.007-1.725,0-.88,0-1.761c0-.263,0-.527,0-.79a.855.855,0,0,1,.1-.374,1.191,1.191,0,0,1,.314-.391.936.936,0,0,1,.409-.205,1.183,1.183,0,0,1,.646.02,1.145,1.145,0,0,1,.793,1.119c0,.595,0,1.189,0,1.784q0,.282,0,.565Z" transform="translate(-1373.341 -521.287)" fill="#f5f5f5"/>
    <path id="Path_9" data-name="Path 9" d="M1348.214,530.859c0,.391,0,.782,0,1.173s.008.8.007,1.2a.946.946,0,0,1-.037.312,1.04,1.04,0,0,1-.5.64,2.263,2.263,0,0,1-.325.15.883.883,0,0,1-.312.034,1.149,1.149,0,0,1-.975-.646,1.057,1.057,0,0,1-.114-.522c0-.53,0-1.06,0-1.591,0-.624-.014-1.247-.019-1.871,0-.451,0-.9-.005-1.353a1,1,0,0,1,.082-.371,1.036,1.036,0,0,1,.364-.461,1,1,0,0,1,.618-.212,1.774,1.774,0,0,1,.347.032,1.073,1.073,0,0,1,.553.329,1.215,1.215,0,0,1,.213.342.846.846,0,0,1,.079.349q.005.756.01,1.511c0,.32,0,.639,0,.959Z" transform="translate(-1345.935 -521.343)" fill="#f5f5f5"/>
  </g>
</svg>
