<svg xmlns="http://www.w3.org/2000/svg" width="25.338" height="23.227" viewBox="0 0 25.338 23.227">
  <path id="display-code" d="M19.131,8.263a3.169,3.169,0,0,1,0,4.479L16.4,15.469a1.056,1.056,0,1,1-1.493-1.493l2.727-2.728a1.056,1.056,0,0,0,0-1.493L14.912,7.027A1.056,1.056,0,1,1,16.4,5.534l2.727,2.728Zm-8.7-1.235A1.056,1.056,0,1,0,8.934,5.534L6.207,8.263a3.169,3.169,0,0,0,0,4.479l2.727,2.728a1.056,1.056,0,1,0,1.493-1.493L7.7,11.248a1.056,1.056,0,0,1,0-1.493l2.727-2.728Zm14.912-.749v8.446A5.285,5.285,0,0,1,20.059,20H13.725v2.112h4.223a1.056,1.056,0,1,1,0,2.112H7.39a1.056,1.056,0,1,1,0-2.112h4.223V20H5.279A5.285,5.285,0,0,1,0,14.725V6.279A5.285,5.285,0,0,1,5.279,1H20.059A5.285,5.285,0,0,1,25.338,6.279Zm-2.112,0a3.171,3.171,0,0,0-3.167-3.167H5.279A3.171,3.171,0,0,0,2.112,6.279v8.446a3.171,3.171,0,0,0,3.167,3.167H20.059a3.171,3.171,0,0,0,3.167-3.167Z" transform="translate(0 -1)" fill="#b8babf"/>
</svg>
