<svg xmlns="http://www.w3.org/2000/svg" width="73.205" height="67.105" viewBox="0 0 73.205 67.105">
  <path id="display-code" d="M55.273,21.982a9.157,9.157,0,0,1,0,12.939L47.394,42.8a3.05,3.05,0,0,1-4.313-4.313l7.879-7.882a3.052,3.052,0,0,0,0-4.313l-7.879-7.882A3.05,3.05,0,1,1,47.394,14.1l7.879,7.882ZM30.124,18.414A3.05,3.05,0,0,0,25.811,14.1l-7.879,7.882a9.157,9.157,0,0,0,0,12.939L25.811,42.8a3.05,3.05,0,1,0,4.313-4.313l-7.879-7.882a3.052,3.052,0,0,1,0-4.313l7.879-7.882ZM73.2,16.251v24.4A15.268,15.268,0,0,1,57.954,55.9h-18.3V62h12.2a3.05,3.05,0,1,1,0,6.1h-30.5a3.05,3.05,0,1,1,0-6.1h12.2V55.9h-18.3A15.268,15.268,0,0,1,0,40.653v-24.4A15.268,15.268,0,0,1,15.251,1h42.7A15.268,15.268,0,0,1,73.2,16.251Zm-6.1,0A9.162,9.162,0,0,0,57.954,7.1h-42.7A9.162,9.162,0,0,0,6.1,16.251v24.4A9.162,9.162,0,0,0,15.251,49.8h42.7A9.162,9.162,0,0,0,67.1,40.653Z" transform="translate(0 -1)" fill="#00d0b0"/>
</svg>
