<svg xmlns="http://www.w3.org/2000/svg" width="76.975" height="76.975" viewBox="0 0 76.975 76.975">
  <g id="video" transform="translate(0.5 0.5)">
    <g id="object_3_">
      <g id="Group_72566" data-name="Group 72566">
        <path id="Path_102587" data-name="Path 102587" d="M61.845,0H14.129A14.146,14.146,0,0,0,0,14.129V61.845A14.146,14.146,0,0,0,14.129,75.975H61.845A14.146,14.146,0,0,0,75.975,61.845V14.129A14.146,14.146,0,0,0,61.845,0ZM70.73,14.129V18.71H57.443L47.506,5.245H61.845A8.9,8.9,0,0,1,70.73,14.129ZM40.988,5.245,50.925,18.71H34.987L25.05,5.245ZM5.245,14.129a8.9,8.9,0,0,1,8.885-8.885h4.4L28.468,18.71H5.245Zm56.6,56.6H14.129a8.9,8.9,0,0,1-8.885-8.885V23.955H70.73v37.89A8.9,8.9,0,0,1,61.845,70.73Z" fill="#00d0b0" stroke="#00d0b0" stroke-width="1"/>
      </g>
      <g id="Group_72567" data-name="Group 72567" transform="translate(27.298 32.741)">
        <path id="Path_102588" data-name="Path 102588" d="M208.645,232.977,187.9,221a2.623,2.623,0,0,0-3.934,2.271v23.956A2.622,2.622,0,0,0,187.9,249.5l20.747-11.978a2.623,2.623,0,0,0,0-4.542Zm-19.436,9.707V227.812l12.88,7.436Z" transform="translate(-183.965 -220.647)" fill="#00d0b0" stroke="#00d0b0" stroke-width="1"/>
      </g>
    </g>
  </g>
</svg>
