<svg xmlns="http://www.w3.org/2000/svg" width="21.55" height="24.894" viewBox="0 0 21.55 24.894">
  <g id="voice-recorder" transform="translate(-10.118 -29.434)">
    <g id="Group_72551" data-name="Group 72551" transform="translate(13.46 42.701)">
      <g id="Group_72550" data-name="Group 72550">
        <path id="Path_102579" data-name="Path 102579" d="M134.012,271.915a.82.82,0,1,0-1.64,0,5.794,5.794,0,0,1-11.587,0,.82.82,0,1,0-1.64,0,7.425,7.425,0,0,0,6.613,7.333v1.685h-2.514a.82.82,0,1,0,0,1.64h6.668a.82.82,0,0,0,0-1.64H127.4v-1.685A7.425,7.425,0,0,0,134.012,271.915Z" transform="translate(-119.146 -271.095)" fill="#b8babf" stroke="#b8babf" stroke-width="0.3"/>
      </g>
    </g>
    <g id="Group_72553" data-name="Group 72553" transform="translate(16.739 29.584)">
      <g id="Group_72552" data-name="Group 72552">
        <path id="Path_102580" data-name="Path 102580" d="M183.676,29.584a4.143,4.143,0,0,0-4.154,4.1v9.838a4.154,4.154,0,0,0,8.307,0V33.683A4.143,4.143,0,0,0,183.676,29.584Zm2.514,13.937a2.515,2.515,0,0,1-5.028,0V33.683a2.515,2.515,0,0,1,5.028,0Z" transform="translate(-179.522 -29.584)" fill="#b8babf" stroke="#b8babf" stroke-width="0.3"/>
      </g>
    </g>
    <g id="Group_72557" data-name="Group 72557" transform="translate(28.436 32.906)">
      <g id="Group_72556" data-name="Group 72556" transform="translate(0 0)">
        <path id="Path_102582" data-name="Path 102582" d="M396.278,90.994a.82.82,0,1,0-1.159,1.159,4.092,4.092,0,0,1,0,5.794.82.82,0,1,0,1.159,1.16,5.731,5.731,0,0,0,0-8.113Z" transform="translate(-394.879 -90.754)" fill="#b8babf" stroke="#b8babf" stroke-width="0.3"/>
      </g>
    </g>
    <g id="Group_72559" data-name="Group 72559" transform="translate(26.118 35.224)">
      <g id="Group_72558" data-name="Group 72558">
        <path id="Path_102583" data-name="Path 102583" d="M353.6,133.671a.82.82,0,0,0-1.159,1.159.817.817,0,0,1,0,1.158.82.82,0,0,0,1.159,1.159,2.456,2.456,0,0,0,0-3.477Z" transform="translate(-352.203 -133.431)" fill="#b8babf" stroke="#b8babf" stroke-width="0.3"/>
      </g>
    </g>
    <g id="Group_72563" data-name="Group 72563" transform="translate(10.268 32.906)">
      <g id="Group_72562" data-name="Group 72562" transform="translate(0 0)">
        <path id="Path_102585" data-name="Path 102585" d="M62.017,95.051a4.071,4.071,0,0,1,1.2-2.9.82.82,0,0,0-1.159-1.159,5.731,5.731,0,0,0,0,8.113.82.82,0,0,0,1.159-1.159A4.071,4.071,0,0,1,62.017,95.051Z" transform="translate(-60.377 -90.755)" fill="#b8babf" stroke="#b8babf" stroke-width="0.3"/>
      </g>
    </g>
    <g id="Group_72565" data-name="Group 72565" transform="translate(13.548 35.224)">
      <g id="Group_72564" data-name="Group 72564">
        <path id="Path_102586" data-name="Path 102586" d="M122.636,135.988a.817.817,0,0,1,0-1.158.82.82,0,1,0-1.159-1.159,2.456,2.456,0,0,0,0,3.477.82.82,0,0,0,1.159-1.159Z" transform="translate(-120.756 -133.43)" fill="#b8babf" stroke="#b8babf" stroke-width="0.3"/>
      </g>
    </g>
  </g>
</svg>
