<svg xmlns="http://www.w3.org/2000/svg" width="37.772" height="50.361" viewBox="0 0 37.772 50.361">
  <path id="bulb" d="M9.023,32.7a18.88,18.88,0,1,1,25.311.378,12.045,12.045,0,0,0-3.344,4.693h-7V22.7a6.294,6.294,0,0,0,4.2-5.908,2.1,2.1,0,0,0-4.2,0,2.1,2.1,0,0,1-4.2,0,2.1,2.1,0,1,0-4.2,0,6.294,6.294,0,0,0,4.2,5.908V37.769H12.579A14.348,14.348,0,0,0,9.023,32.7ZM13.5,41.965v.65a7.75,7.75,0,0,0,7.742,7.742h1.3a7.75,7.75,0,0,0,7.742-7.742v-.65Z" transform="translate(-2.995 0.004)" fill="#0f0b33"/>
</svg>
