<svg xmlns="http://www.w3.org/2000/svg" width="44.949" height="45" viewBox="0 0 44.949 45">
  <path id="Path_102552" data-name="Path 102552" d="M12473.3,574.312a20.127,20.127,0,0,0-15.1,14.754,28.242,28.242,0,0,0,0,12.278,24.285,24.285,0,0,0,14.4,16.588l.3.126a6.068,6.068,0,0,0,7.9-3.333,2.356,2.356,0,0,1,2.1-1.408h2.8a16.494,16.494,0,0,0,16.1-12.562,23.293,23.293,0,0,0,0-11.136l-.2-.967a19.342,19.342,0,0,0-14.5-14.245l-1.1-.228a27.3,27.3,0,0,0-12.1,0Zm-2,12.6a1.729,1.729,0,1,0,0,3.456h15.9a1.729,1.729,0,1,0,0-3.456Zm2.9,8.64a1.729,1.729,0,1,0,0,3.456h10.1a1.729,1.729,0,1,0,0-3.456Z" transform="translate(-12457.525 -573.5)" fill="#0f0b33" fill-rule="evenodd"/>
</svg>
