<svg xmlns="http://www.w3.org/2000/svg" width="24" height="24.002" viewBox="0 0 24 24.002">
  <g id="Email-Icon" transform="translate(-55 -370.998)">
    <path id="Path" d="M0,0H24V24H0Z" transform="translate(55 371)" fill="none"/>
    <g id="marker-6" transform="translate(55 371)">
      <path id="Path_102476" data-name="Path 102476" d="M12,6a4,4,0,1,0,4,4A4,4,0,0,0,12,6Zm0,6a2,2,0,1,1,2-2A2,2,0,0,1,12,12Z" fill="#b8babf"/>
      <path id="Path_102477" data-name="Path 102477" d="M12,24a5.271,5.271,0,0,1-4.311-2.2c-3.811-5.257-5.744-9.209-5.744-11.747a10.055,10.055,0,1,1,20.11,0c0,2.538-1.933,6.49-5.744,11.747A5.271,5.271,0,0,1,12,24ZM12,2.181a7.883,7.883,0,0,0-7.874,7.874c0,2.01,1.893,5.727,5.329,10.466a3.145,3.145,0,0,0,5.09,0c3.436-4.739,5.329-8.456,5.329-10.466A7.883,7.883,0,0,0,12,2.181Z" fill="#b8babf"/>
    </g>
  </g>
</svg>
