<svg xmlns="http://www.w3.org/2000/svg" width="21.106" height="21.106" viewBox="0 0 21.106 21.106">
  <g id="email-5" transform="translate(-0.001)">
    <g id="Group_72028" data-name="Group 72028" transform="translate(0.001)">
      <path id="Path_58158" data-name="Path 58158" d="M10.554,0A10.553,10.553,0,1,0,21.107,10.553,10.553,10.553,0,0,0,10.554,0Zm0,3.707L16.8,7.6H4.309Zm6.323,10.113h0a1.131,1.131,0,0,1-1.131,1.131H5.363a1.131,1.131,0,0,1-1.131-1.131V7.849a1.125,1.125,0,0,1,.018-.193l5.967,3.721.023.012.024.013a.626.626,0,0,0,.13.051l.014,0a.644.644,0,0,0,.147.019h0a.632.632,0,0,0,.147-.019l.014,0a.633.633,0,0,0,.13-.051l.024-.013.023-.012,5.967-3.721a1.123,1.123,0,0,1,.018.193Z" transform="translate(-0.001)" fill="#00d0b0"/>
    </g>
  </g>
</svg>
