<svg xmlns="http://www.w3.org/2000/svg" width="20.588" height="20.588" viewBox="0 0 20.588 20.588">
  <g id="Icons_Brand-Logos_twitter" data-name="Icons/Brand-Logos/twitter" transform="translate(0 20.588) rotate(-90)">
    <path id="twitter" d="M19.157,5.523a7.283,7.283,0,0,1-2.025.549,3.543,3.543,0,0,0,1.553-1.947,7.043,7.043,0,0,1-2.239.858,3.517,3.517,0,0,0-6,3.208A9.985,9.985,0,0,1,3.192,4.51a3.569,3.569,0,0,0-.472,1.776A3.509,3.509,0,0,0,4.282,9.211a3.474,3.474,0,0,1-1.6-.437v.043a3.517,3.517,0,0,0,2.831,3.431,3.371,3.371,0,0,1-.944.146,4.2,4.2,0,0,1-.661-.06A3.526,3.526,0,0,0,7.2,14.77a7.051,7.051,0,0,1-4.341,1.51A6.8,6.8,0,0,1,2,16.229a9.925,9.925,0,0,0,5.4,1.587A9.942,9.942,0,0,0,17.441,7.8V7.341a7.232,7.232,0,0,0,1.716-1.819Z" transform="translate(-0.284 -0.052)" fill="#2c2c2c" fill-rule="evenodd"/>
    <g id="frame" fill="none" stroke="#707070" stroke-width="1" opacity="0">
      <rect width="20.588" height="20.588" stroke="none"/>
      <rect x="0.5" y="0.5" width="19.588" height="19.588" fill="none"/>
    </g>
  </g>
</svg>
