<svg xmlns="http://www.w3.org/2000/svg" width="24" height="25" viewBox="0 0 24 25">
  <g id="User-Icon" transform="translate(0 1)">
    <path id="Vector" d="M0,0H24V24H0Z" fill="none"/>
    <path id="mobile-button" d="M15,24H9a5.006,5.006,0,0,1-5-5V5A5.006,5.006,0,0,1,9,0h6a5.006,5.006,0,0,1,5,5V19A5.006,5.006,0,0,1,15,24ZM9,2A3,3,0,0,0,6,5V19a3,3,0,0,0,3,3h6a3,3,0,0,0,3-3V5a3,3,0,0,0-3-3Zm5,17h0a1,1,0,0,0-1-1H11a1,1,0,0,0-1,1h0a1,1,0,0,0,1,1h2A1,1,0,0,0,14,19Z" transform="translate(0 -1)" fill="#b8babf"/>
  </g>
</svg>
