<svg xmlns="http://www.w3.org/2000/svg" width="17.061" height="20.133" viewBox="0 0 17.061 20.133">
  <g id="Group_72042" data-name="Group 72042" transform="translate(0)">
    <path id="Path_6" data-name="Path 6" d="M1354.133,527.921h.212c.732,0,1.464-.008,2.195-.009l2.973,0,2.158-.006c.242,0,.484.006.727,0,.374,0,.748-.011,1.121-.013.271,0,.542,0,.813,0,.255,0,.509,0,.764,0h.037c.129.005.154.035.155.165,0,.234.007.467.008.7,0,.2,0,.4,0,.6q0,.876.007,1.751c0,.349,0,.7,0,1.048,0,.469,0,.937.005,1.406,0,.28,0,.559,0,.839,0,.5,0,.994,0,1.491a2.276,2.276,0,0,1-.017.32,1.244,1.244,0,0,1-.529.855,1.351,1.351,0,0,1-.888.265c-.209-.011-.419,0-.628,0a.558.558,0,0,0-.074,0c-.108.014-.134.04-.135.151,0,.246,0,.493,0,.74s.006.509.009.763c0,.341,0,.681.007,1.022a1.192,1.192,0,0,1-.254.805,1.136,1.136,0,0,1-.554.394,1.382,1.382,0,0,1-.873-.014,1.127,1.127,0,0,1-.555-.427,1.44,1.44,0,0,1-.245-.872c0-.411,0-.822,0-1.233q0-.573,0-1.147a.546.546,0,0,0-.005-.086.091.091,0,0,0-.088-.087c-.065,0-.131-.015-.2-.015q-.6,0-1.209,0c-.158,0-.183.027-.183.19,0,.518,0,1.036,0,1.554,0,.308,0,.616,0,.924,0,.07-.006.14-.012.209a1.116,1.116,0,0,1-.5.836,1.226,1.226,0,0,1-1.25.11,1.069,1.069,0,0,1-.464-.39,1.026,1.026,0,0,1-.194-.42,2.632,2.632,0,0,1-.048-.39c-.006-.469,0-.937,0-1.406,0-.365-.011-.73-.019-1.095,0-.091-.04-.123-.146-.124-.214,0-.428-.013-.641,0a1.532,1.532,0,0,1-.717-.144,1.18,1.18,0,0,1-.274-.185,1.239,1.239,0,0,1-.466-.928c-.013-.3-.006-.592-.007-.888,0-.37,0-.74,0-1.11q-.01-1.62-.021-3.241c0-.407-.007-.813-.009-1.22,0-.353,0-.706,0-1.058,0-.148-.007-.3-.006-.443,0-.061.012-.122.02-.2" transform="translate(-1351.189 -521.147)" fill="#2c2c2c"/>
    <path id="Path_7" data-name="Path 7" d="M1361.441,515.341c-1.11,0-2.221,0-3.331,0-.781,0-1.562.009-2.344.012-.493,0-.987,0-1.48,0-.029,0-.057,0-.087,0-.09,0-.113-.021-.11-.11a3.856,3.856,0,0,1,.119-1c.03-.1.052-.2.079-.3a.547.547,0,0,1,.021-.071q.13-.311.261-.622a3.5,3.5,0,0,1,.383-.659c.116-.162.245-.316.372-.47a3.945,3.945,0,0,1,.272-.3,3.617,3.617,0,0,1,.33-.293c.2-.156.416-.3.626-.452.037-.026.08-.042.119-.064a1.181,1.181,0,0,0,.144-.093c.07-.056.078-.094.035-.171-.124-.222-.254-.441-.377-.663-.084-.15-.161-.3-.242-.455-.048-.09-.1-.177-.146-.27a.444.444,0,0,1-.043-.177.133.133,0,0,1,.189-.127.225.225,0,0,1,.137.116c.127.239.252.48.382.717.09.165.189.325.281.489.034.061.058.127.092.189a.169.169,0,0,0,.254.094c.2-.087.411-.14.616-.212a4.315,4.315,0,0,1,.707-.15c.138-.023.274-.057.413-.067a6.52,6.52,0,0,1,1.083,0c.188.018.373.056.559.085.093.015.188.025.279.049a6.918,6.918,0,0,1,.878.274c.152.062.2.046.279-.1.141-.268.277-.539.419-.807.069-.13.146-.255.217-.384.036-.064.072-.129.1-.2a.244.244,0,0,1,.145-.126.15.15,0,0,1,.192.119.354.354,0,0,1-.06.221c-.105.19-.208.382-.311.573-.078.144-.158.287-.235.432-.064.119-.129.238-.189.359a.123.123,0,0,0,.049.19c.1.069.209.128.314.193a3.993,3.993,0,0,1,.658.491c.183.176.374.345.542.534a5.784,5.784,0,0,1,.407.538,3.517,3.517,0,0,1,.258.417c.093.182.161.376.251.559a4.393,4.393,0,0,1,.221.7,2.566,2.566,0,0,1,.067.438c.013.11.018.221.025.332a.48.48,0,0,1,0,.086c-.01.1-.032.118-.134.118h-3.69Zm-4.336-1.991a.463.463,0,0,0,.491-.483.469.469,0,0,0-.47-.468.476.476,0,1,0-.021.952m5.6-.488a.484.484,0,0,0-.505-.478.467.467,0,0,0-.463.493.484.484,0,0,0,.476.467.5.5,0,0,0,.492-.481" transform="translate(-1351.174 -509.025)" fill="#2c2c2c"/>
    <path id="Path_8" data-name="Path 8" d="M1389.162,531.1q0,.783,0,1.567c0,.358.012.715,0,1.072a1.173,1.173,0,0,1-.584,1.02,1.14,1.14,0,0,1-.537.192.931.931,0,0,1-.482-.062,3.214,3.214,0,0,1-.3-.142,1.12,1.12,0,0,1-.566-.962q-.011-.381-.014-.763-.005-.942-.008-1.885,0-.962,0-1.923c0-.288,0-.576,0-.863a.934.934,0,0,1,.114-.409,1.3,1.3,0,0,1,.343-.427,1.023,1.023,0,0,1,.447-.224,1.293,1.293,0,0,1,.706.022,1.251,1.251,0,0,1,.866,1.223c0,.65,0,1.3,0,1.949q0,.308,0,.617Z" transform="translate(-1372.108 -520.735)" fill="#2c2c2c"/>
    <path id="Path_9" data-name="Path 9" d="M1348.425,531.185c0,.427,0,.855,0,1.282s.009.871.007,1.306a1.04,1.04,0,0,1-.04.34,1.138,1.138,0,0,1-.544.7,2.473,2.473,0,0,1-.355.164.967.967,0,0,1-.34.038,1.255,1.255,0,0,1-1.065-.706,1.158,1.158,0,0,1-.124-.57c0-.579,0-1.159,0-1.738,0-.681-.015-1.363-.02-2.044,0-.493,0-.986-.006-1.479a1.092,1.092,0,0,1,.09-.405,1.132,1.132,0,0,1,.4-.5,1.088,1.088,0,0,1,.675-.232,1.94,1.94,0,0,1,.379.035,1.171,1.171,0,0,1,.6.36,1.323,1.323,0,0,1,.233.374.926.926,0,0,1,.086.381q.005.826.01,1.651c0,.349,0,.7,0,1.048Z" transform="translate(-1345.935 -520.788)" fill="#2c2c2c"/>
  </g>
</svg>
